<svg id="visual" viewBox="0 0 900 600" width="900" height="600" xmlns="http://www.w3.org/2000/svg" xmlns:xlink="http://www.w3.org/1999/xlink" version="1.1"><rect x="0" y="0" width="900" height="600" fill="#ffffff"></rect><path d="M0 208L21.5 206.3C43 204.7 86 201.3 128.8 202.2C171.7 203 214.3 208 257.2 189.2C300 170.3 343 127.7 385.8 126.3C428.7 125 471.3 165 514.2 184.8C557 204.7 600 204.3 642.8 193C685.7 181.7 728.3 159.3 771.2 159.2C814 159 857 181 878.5 192L900 203L900 0L878.5 0C857 0 814 0 771.2 0C728.3 0 685.7 0 642.8 0C600 0 557 0 514.2 0C471.3 0 428.7 0 385.8 0C343 0 300 0 257.2 0C214.3 0 171.7 0 128.8 0C86 0 43 0 21.5 0L0 0Z" fill="#fd0a0a" stroke-linecap="round" stroke-linejoin="miter"></path></svg>